<?xml version="1.0" encoding="utf-8"?>
<!-- Generator: Adobe Illustrator 17.0.0, SVG Export Plug-In . SVG Version: 6.00 Build 0)  -->
<!DOCTYPE svg PUBLIC "-//W3C//DTD SVG 1.1//EN" "http://www.w3.org/Graphics/SVG/1.1/DTD/svg11.dtd">
<svg version="1.1" id="图层_1" xmlns="http://www.w3.org/2000/svg" xmlns:xlink="http://www.w3.org/1999/xlink" x="0px" y="0px"
	 width="280px" height="39.556px" viewBox="0.625 13.611 280 39.556" enable-background="new 0.625 13.611 280 39.556"
	 xml:space="preserve">
<g>
	<g>
		<path fill="#231815" d="M53.977,18.866h2.757l0.028-0.032c0.067-0.067,0.067-0.179,0-0.238l-1.29-1.292
			c-0.06-0.065-0.171-0.065-0.238,0l-1.289,1.292c-0.068,0.06-0.068,0.171,0,0.238L53.977,18.866z"/>
		<path fill="#231815" d="M54.731,22.822h2.757l0.028-0.032c0.071-0.065,0.071-0.174,0-0.238l-1.29-1.29
			c-0.064-0.067-0.171-0.067-0.238,0l-1.29,1.29c-0.063,0.063-0.063,0.172,0,0.238L54.731,22.822z"/>
		<path fill="#231815" d="M53.101,20.826h2.761l0.024-0.028c0.067-0.066,0.067-0.179,0-0.238L54.6,19.269
			c-0.071-0.065-0.179-0.065-0.242,0l-1.29,1.292c-0.067,0.059-0.067,0.172,0,0.238L53.101,20.826z"/>
		<polygon fill="#231815" points="116.061,20.759 111.384,20.759 110.975,20.346 116.061,20.346 		"/>
		<path fill="#231815" d="M124.1,22.494h2.754l0.028-0.032c0.072-0.065,0.072-0.173,0-0.238l-1.285-1.287
			c-0.067-0.071-0.174-0.071-0.234,0l-1.293,1.287c-0.064,0.065-0.064,0.173,0,0.238L124.1,22.494z"/>
		<path fill="#231815" d="M124.889,30.822h2.757l0.028-0.028c0.063-0.067,0.063-0.177,0-0.238l-1.285-1.292
			c-0.067-0.067-0.175-0.067-0.238,0l-1.289,1.292c-0.063,0.062-0.063,0.171,0,0.238L124.889,30.822z"/>
		<polygon fill="#231815" points="101.04,22.06 95.926,22.06 95.66,21.794 101.04,21.794 		"/>
		<path fill="#231815" d="M99.402,22.06h1.801l0.02-0.016c0.036-0.044,0.036-0.119,0-0.159l-0.845-0.839
			c-0.044-0.05-0.115-0.05-0.155,0l-0.841,0.839c-0.043,0.04-0.043,0.115,0,0.159L99.402,22.06z"/>
		<polygon fill="#231815" points="48.927,17.432 48.927,22.973 50.288,22.973 50.288,16.141 48.419,16.708 		"/>
		<polygon fill="#231815" points="83.924,17.835 83.924,31.011 85.285,31.011 85.285,16.537 83.413,17.107 		"/>
		<polygon fill="#231815" points="63.174,19.053 63.174,24.643 61.813,24.131 61.813,17.765 63.686,18.329 		"/>
		<path fill="#231815" d="M46.455,31.039L46.455,31.039v-6.471l0.512-0.73l-1.873-0.566v9.231
			C46.15,32.161,46.455,31.039,46.455,31.039z"/>
		<path fill="#231815" d="M69.844,29.269L69.844,29.269v-1.841l0.508-0.728l-1.869-0.569v4.6
			C69.53,30.394,69.844,29.269,69.844,29.269z"/>
		<path fill="#231815" d="M90.126,23.492h0.004v-3.692l0.508-0.732l-1.869-0.563v6.451C89.82,24.615,90.126,23.492,90.126,23.492z"
			/>
		<path fill="#231815" d="M90.764,30.787h0.004v-4.158l0.512-0.726l-1.869-0.569v6.917C90.455,31.905,90.764,30.787,90.764,30.787z"
			/>
		<path fill="#231815" d="M54.033,31.039L54.033,31.039v-5.973l0.631-0.579l-1.456-1.099l-0.532,0.728v8.387
			C53.724,32.161,54.033,31.039,54.033,31.039z"/>
		<rect x="45.967" y="24.113" fill="#231815" width="7.661" height="0.411"/>
		<path fill="#231815" d="M99.596,30.344H99.6V26.03l0.631-0.577l-1.456-1.101l-0.536,0.732v6.725
			C99.287,31.467,99.596,30.344,99.596,30.344z"/>
		<rect x="95.617" y="25.079" fill="#231815" width="3.575" height="0.411"/>
		<rect x="102.385" y="21.727" fill="#231815" width="5.479" height="0.409"/>
		<rect x="62.424" y="18.577" fill="#231815" width="7.665" height="0.411"/>
		<rect x="61.262" y="29.577" fill="#231815" width="7.661" height="0.413"/>
		<rect x="62.861" y="24.552" fill="#231815" width="10.506" height="0.409"/>
		<rect x="45.967" y="26.198" fill="#231815" width="7.661" height="0.411"/>
		<rect x="45.967" y="28.299" fill="#231815" width="7.661" height="0.411"/>
		<path fill="#231815" d="M50.399,30.674v0.242c0,0,1.527,0.064,1.92,1.44c0.389,1.383,1.71-0.75,1.71-1.335
			c0-0.587-1.056-0.189-1.056-0.189S52.402,30.923,50.399,30.674z"/>
		<path fill="#231815" d="M64.817,15.966c0,0,2.218,0.631,2.135,0.867c-0.075,0.24-1.262-0.075-2.174,1.823l-0.552,0.038
			c0,0,0.873-2.174,0.591-2.65"/>
		<path fill="#231815" d="M64.051,19.856c0,0,1.67,1.149,2.412,2.192C67.213,23.088,68.991,19.521,64.051,19.856z"/>
		<path fill="#231815" d="M113.118,16.494c0,0,1.166,1.658,1.504,2.896C114.955,20.62,117.867,17.896,113.118,16.494z"/>
		<path fill="#231815" d="M114.526,23.788c0,0,1.611,1.232,2.305,2.311C117.518,27.174,119.477,23.699,114.526,23.788z"/>
		<path fill="#231815" d="M69.451,18.616l0.992-0.732c0,0,1.075,0.708,1.262,1.228l-0.778,0.444c0,0,0.702,4.349-2.416,4.422
			c0,0,0.032-0.879-1.698-1.24v-0.202c0,0,2.341,0.651,2.674-0.738C69.816,20.41,69.752,18.854,69.451,18.616z"/>
		<path fill="#231815" d="M71.24,19.372c0,0-0.313,0.113-0.278,0.716c0.04,0.605-0.44,0.418-0.44,0.418s-0.19-0.379-0.44-0.809
			c-0.25-0.427-0.341-0.704-0.92-0.704c-0.579,0,0-0.191,0-0.191s0.746,0.014,0.833,0c0.087-0.012,0.643-0.026,0.643-0.026
			l0.365,0.292"/>
		<path fill="#231815" d="M61.849,23.885l-0.405,0.692c0,0,0.647,0.847,1.254,0.875c0,0,0.357-0.585,0.805-0.585
			c0,0-0.425-0.379-0.405-1.143c0.028-0.758-1.202,0.161-1.202,0.161"/>
		<polygon fill="#231815" points="80.286,19.674 80.286,23.409 78.929,22.901 78.929,18.378 80.798,18.944 		"/>
		<path fill="#231815" d="M78.969,22.647l-0.409,0.696c0,0,0.651,0.849,1.254,0.873c0,0,0.357-0.581,0.805-0.581
			c0,0-0.425-0.381-0.401-1.141c0.024-0.76-1.214,0.153-1.214,0.153"/>
		<polygon fill="#231815" points="79.52,26.46 79.52,30.656 78.16,30.15 78.16,25.165 80.028,25.732 		"/>
		<polygon fill="#231815" points="99.334,17.708 99.334,21.907 97.973,21.862 97.973,16.412 99.842,16.98 		"/>
		<path fill="#231815" d="M78.195,29.896l-0.401,0.692c0,0,0.647,0.855,1.25,0.875c0,0,0.357-0.579,0.805-0.579
			c0,0-0.425-0.381-0.401-1.143c0.02-0.764-1.21,0.155-1.21,0.155"/>
		<polygon fill="#231815" points="61.663,27.353 61.663,29.704 60.306,29.198 60.306,26.059 62.174,26.629 		"/>
		<polygon fill="#231815" points="65.717,26.789 65.717,29.916 64.364,29.87 64.364,25.494 66.229,26.059 		"/>
		<path fill="#231815" d="M60.337,28.946l-0.397,0.694c0,0,0.647,0.851,1.25,0.871c0,0,0.357-0.579,0.805-0.579
			c0,0-0.42-0.381-0.401-1.145c0.02-0.758-1.214,0.159-1.214,0.159"/>
		<path fill="#231815" d="M72.188,24.619l0.706-0.805l1.416,1.337c0,0-0.659,0.101-0.781,0.708
			c-0.127,0.605,0.405,6.618-2.908,6.717c0,0,0.024-1.414-1.718-1.514l-0.048-0.306c0,0,2.571,0.657,2.876-1.186
			c0.301-1.845,0.456-4.876,0.456-4.876"/>
		<path fill="#231815" d="M95.434,17.454c0,0,0.877,12.135-1.885,14.755l0.278,0.274c0,0,2.912-2.603,2.912-8.078
			c0-5.473,0-5.658,0-5.658l0.563-0.73L95.434,17.454z"/>
		<path fill="#231815" d="M101.493,17.454c0,0,1.333,12.194-2.876,14.755l0.282,0.274c0,0,3.896-2.603,3.896-8.078
			c0-5.473,0-5.658,0-5.658l0.564-0.73L101.493,17.454z"/>
		<path fill="#231815" d="M108.265,16.926c0,0,1.079,1.002,1.079,1.464c0,0.464-1.389,0.157-6.709,0.736l-0.155-0.579
			C102.48,18.547,106.992,17.503,108.265,16.926z"/>
		<path fill="#231815" d="M106.805,21.83l0.722-0.897c0,0,1.381,0.666,1.531,1.357l-0.666,0.464c0,0-0.171,8.475-8.106,9.655
			l-0.167-0.26C100.12,32.15,107.158,29.967,106.805,21.83z"/>
		<path fill="#231815" d="M103.639,22.131c0,0-0.349,6.435,4.666,9.867c0,0,0.54-1.347,2.234-0.847l0.151-0.155
			c0,0-6.32-2.508-6.586-8.866H103.639z"/>
		<path fill="#231815" d="M115.454,20.398l0.75-0.841c0,0,1.333,0.954,1.42,1.216c0,0-0.841,0.549-1.738,1.819
			c-0.893,1.273-3.61,4.743-4.912,5.467l-0.234-0.26C110.741,27.799,115.224,23.403,115.454,20.398z"/>
		<path fill="#231815" d="M114.141,24.02v8.286c1.051-0.341,1.353-1.462,1.353-1.462h0.004V24.02H114.141z"/>
		<rect x="50.68" y="18.454" fill="#231815" width="5.805" height="0.413"/>
		<polygon fill="#231815" points="48.395,18.454 42.479,18.454 42.888,18.866 48.395,18.866 		"/>
		<polygon fill="#231815" points="48.395,20.418 43.507,20.418 43.916,20.826 48.395,20.826 		"/>
		<rect x="50.68" y="20.418" fill="#231815" width="4.932" height="0.409"/>
		<rect x="50.68" y="22.409" fill="#231815" width="6.562" height="0.413"/>
		<polygon fill="#231815" points="48.395,22.409 41.301,22.409 41.71,22.822 48.395,22.822 		"/>
		<rect x="80.076" y="23.242" fill="#231815" width="3.285" height="0.415"/>
		<rect x="85.884" y="23.242" fill="#231815" width="3.487" height="0.415"/>
		<rect x="79.155" y="30.433" fill="#231815" width="4.206" height="0.411"/>
		<rect x="85.884" y="30.433" fill="#231815" width="4.007" height="0.411"/>
		<polygon fill="#231815" points="120.85,22.084 117.279,22.084 117.688,22.494 120.85,22.494 		"/>
		<rect x="123.369" y="22.084" fill="#231815" width="3.238" height="0.411"/>
		<polygon fill="#231815" points="120.85,30.412 116.68,30.412 117.093,30.822 120.85,30.822 		"/>
		<rect x="123.37" y="30.412" fill="#231815" width="4.031" height="0.411"/>
		<polygon fill="#231815" points="121.537,30.912 121.537,17.617 121.025,16.888 122.894,16.321 122.894,30.912 		"/>
		<polygon fill="#231815" points="51.946,18.866 50.68,18.866 50.68,17.601 		"/>
		<polygon fill="#231815" points="87.142,23.657 85.884,23.657 85.884,22.397 		"/>
		<polygon fill="#231815" points="124.635,22.494 123.37,22.494 123.37,21.231 		"/>
		<polygon fill="#231815" points="124.635,30.822 123.37,30.822 123.37,29.563 		"/>
		<polygon fill="#231815" points="87.142,30.844 85.884,30.844 85.884,29.583 		"/>
		<polygon fill="#231815" points="51.946,20.826 50.68,20.826 50.68,19.566 		"/>
		<polygon fill="#231815" points="51.946,22.822 50.68,22.822 50.68,21.56 		"/>
	</g>
	<g>
		<path fill="#231815" d="M162.303,40.047l-0.095,0.323c-0.373,0-0.651,0.145-0.837,0.432c-1.928-1.043-3.515-2.555-4.757-4.533
			c-1.524,2.232-3.309,4.011-5.36,5.342l-0.234-0.377c2.051-1.44,3.682-3.13,4.896-5.074c0.214-0.357,0.341-0.718,0.373-1.079
			l1.071,0.488l-0.048,0.27l-0.464,0.052C158.494,38.158,160.311,39.545,162.303,40.047z M160.252,46.306l0.651-0.756l0.98,0.863
			l-0.048,0.27h-10.256v-0.377h4.753v-2.752h-3.543v-0.379h3.543v-2.48h-3.214v-0.379h5.269l0.603-0.81l0.889,0.919l-0.048,0.27
			h-2.94v2.48h2.055l0.603-0.861l0.98,0.97l-0.048,0.27h-3.591v2.752H160.252z"/>
		<path fill="#231815" d="M163.818,35.57l0.655,0.591h8.439l0.373-0.591l0.79,0.647v0.27l-0.417,0.27v7.878
			c0,0.97,0.012,1.779,0.044,2.428c-0.155,0.143-0.357,0.216-0.603,0.216v-0.972h-8.721v0.756c-0.186,0.107-0.389,0.161-0.607,0.161
			c0.032-0.827,0.048-1.619,0.048-2.373v-7.661c0-0.72-0.016-1.26-0.048-1.619H163.818z M173.099,36.54h-8.721v9.443h8.721V36.54z
			 M165.779,40.533h2.611v-2.105h-3.356v-0.379h6.015l0.464-0.7l0.841,0.863l-0.048,0.216h-3.404v2.105h1.631L171,39.886
			l0.837,0.809l-0.091,0.214h-2.845v3.184h2.424l0.468-0.7l0.837,0.861l-0.048,0.216h-7.784v-0.377h3.59V40.91h-2.611V40.533z
			 M169.694,41.882l0.139-0.27c0.496,0.252,0.932,0.575,1.305,0.972c0.25,0.321,0.282,0.611,0.095,0.861
			c-0.186,0.109-0.393,0.02-0.607-0.27C170.409,42.673,170.095,42.241,169.694,41.882z"/>
		<path fill="#231815" d="M184.688,36.161l0.559-0.81l1.024,0.972l-0.048,0.216h-5.36l-0.841,2.319h3.872l0.278-0.484l0.793,0.593
			v0.27l-0.421,0.216v5.935c0,0.036,0,0.127,0,0.27c0.032,0.359,0.048,0.789,0.048,1.293c-0.091,0.071-0.298,0.127-0.607,0.163
			v-0.916h-6.479v0.809c-0.282,0.107-0.484,0.161-0.607,0.161c0.032-0.647,0.048-1.186,0.048-1.619v-5.933
			c0-0.54-0.032-0.918-0.095-1.135l0.095-0.107l0.464,0.484h2.147l0.651-2.319h-4.892v-0.379H184.688z M183.986,39.291h-6.479v3.075
			h6.479V39.291z M177.507,42.798v3.131h6.479v-3.131H177.507z"/>
		<path fill="#231815" d="M189.885,35.137l1.027,0.593l-0.048,0.216L190.401,36c-0.345,0.756-0.702,1.529-1.075,2.319v6.638
			c0,0.792,0.016,1.476,0.048,2.051c-0.25,0.143-0.48,0.214-0.698,0.214c0.032-0.79,0.048-1.492,0.048-2.103v-5.721
			c-0.405,0.758-0.841,1.44-1.305,2.051l-0.329-0.27c0.932-1.474,1.726-2.968,2.381-4.479
			C189.655,36.127,189.794,35.605,189.885,35.137z M189.794,46.306h3.916v-2.861h-3.031v-0.377h3.031v-0.702
			c0-0.502-0.016-0.988-0.048-1.456l1.071,0.216v0.27l-0.464,0.216v1.456h2.19l0.512-0.754l0.841,0.861l-0.095,0.27h-3.448v2.861
			h2.797l0.512-0.647l0.885,0.754l-0.091,0.27h-8.578V46.306z M190.961,37.349h2.749v-0.756c0-0.611-0.016-1.095-0.048-1.456
			l1.071,0.27v0.214l-0.464,0.218v1.51h2.099l0.464-0.649l0.885,0.809l-0.091,0.27h-3.356v2.377h2.702l0.468-0.649l0.885,0.81
			l-0.091,0.27h-7.927v-0.43h3.404v-2.377h-2.749V37.349z"/>
		<path fill="#231815" d="M200.217,35.514l0.651,0.595h7.832l0.421-0.54l0.793,0.591v0.27l-0.421,0.27v7.88
			c0,0.97,0.016,1.779,0.048,2.428c-0.155,0.107-0.357,0.161-0.607,0.161v-1.026h-8.157v0.865c-0.186,0.107-0.389,0.161-0.607,0.161
			c0.032-0.613,0.048-1.402,0.048-2.374v-7.606c0-0.758-0.016-1.297-0.048-1.619L200.217,35.514z M208.933,36.54h-8.157v9.334h8.157
			V36.54z M206.743,37.672l0.746,0.702l-0.048,0.214l-0.464,0.163c-0.5,0.756-1.027,1.404-1.587,1.944
			c0.9,0.718,2.004,1.131,3.309,1.24l-0.044,0.323c-0.345,0-0.575,0.145-0.702,0.432c-1.273-0.397-2.269-0.936-2.983-1.619
			c-0.869,0.718-2.111,1.385-3.73,1.996l-0.139-0.377c1.4-0.504,2.563-1.171,3.495-1.996c-0.432-0.54-0.885-1.17-1.349-1.889
			c-0.405,0.575-0.889,1.186-1.448,1.833l-0.187-0.214c0.778-1.115,1.305-2.033,1.587-2.754c0.032-0.036,0.06-0.089,0.091-0.163
			c0.095-0.25,0.171-0.484,0.234-0.7l0.932,0.43l-0.048,0.27l-0.464,0.056c-0.032,0.071-0.079,0.163-0.139,0.27
			c-0.095,0.143-0.159,0.252-0.186,0.323h2.797L206.743,37.672z M202.966,43.985l0.095-0.321c1.428,0.25,2.547,0.591,3.356,1.024
			c0.31,0.181,0.417,0.397,0.325,0.647c-0.063,0.216-0.25,0.216-0.559,0C205.283,44.723,204.208,44.274,202.966,43.985z
			 M203.526,38.537c0.468,0.754,0.948,1.365,1.444,1.833c0.559-0.54,1.043-1.151,1.448-1.833H203.526z M203.807,42.421l0.091-0.216
			c0.682,0.109,1.305,0.288,1.865,0.54c0.309,0.18,0.436,0.379,0.373,0.593c-0.123,0.252-0.294,0.27-0.512,0.055
			C204.97,42.925,204.367,42.6,203.807,42.421z"/>
		<path fill="#231815" d="M211.429,41.556h4.289v-3.614h-3.634V37.51h3.634v-0.97c0-0.288-0.032-0.72-0.091-1.295
			c0.06,0.397,0.06,0.361,0-0.107l1.119,0.27v0.214l-0.468,0.218v1.67h3.031l0.325-0.54l0.746,0.649v0.216l-0.417,0.27l-0.282,3.452
			h1.587l0.373-0.54l0.79,0.649v0.27l-0.464,0.216c0,0.936-0.063,1.817-0.186,2.642c-0.032,1.188-0.655,1.781-1.865,1.781
			c-0.032-0.361-0.484-0.593-1.353-0.702l0.048-0.323c0.496,0.109,1.039,0.198,1.631,0.27c0.591,0.109,0.917-0.27,0.98-1.133
			c0.123-1.043,0.186-1.942,0.186-2.698h-5.13v3.831c0,0.073,0,0.234,0,0.486c0.032,0.397,0.048,0.647,0.048,0.756
			c-0.25,0.071-0.464,0.107-0.651,0.107c0-0.145,0.012-0.415,0.044-0.809c0-0.323,0-0.54,0-0.647v-3.724h-4.289V41.556z
			 M219.404,37.942h-3.126v3.614h2.845L219.404,37.942z M219.261,35.73l0.143-0.323c0.932,0.504,1.706,1.061,2.329,1.672
			c0.341,0.359,0.42,0.684,0.234,0.97c-0.186,0.182-0.389,0.091-0.607-0.27C220.896,37.133,220.193,36.45,219.261,35.73z"/>
		<path fill="#231815" d="M233.135,47.169v-0.43h-8.252l-0.325,0.43c-0.159-0.145-0.329-0.323-0.516-0.54
			c-0.032-0.107-0.032-0.161,0-0.161c0.282-0.216,0.405-0.397,0.373-0.54v-2.644c0-0.395-0.016-0.827-0.044-1.295l0.932,0.216v0.216
			l-0.329,0.214v3.67h3.729v-5.289h-3.4l-0.373,0.433c-0.127-0.179-0.282-0.377-0.468-0.593c-0.032-0.072-0.032-0.125,0-0.161
			c0.282-0.218,0.405-0.415,0.373-0.595v-2.158c0-0.395-0.016-0.825-0.048-1.293l0.932,0.214v0.27l-0.325,0.163v3.291h3.309v-4.263
			c0-0.395-0.016-0.789-0.043-1.186l1.024,0.27v0.27l-0.421,0.163v4.747h3.404v-2.698c0-0.431-0.016-0.881-0.048-1.349l0.98,0.216
			v0.27l-0.373,0.163v2.319c0,0.468,0.032,1.061,0.095,1.779c-0.186,0.109-0.405,0.183-0.655,0.218v-0.488h-3.404v5.289h3.872
			v-2.912c0-0.397-0.016-0.829-0.048-1.297l0.98,0.218v0.214l-0.373,0.216v2.589c0,0.073,0,0.254,0,0.54
			c0.028,0.504,0.044,0.881,0.044,1.135C233.524,47.079,233.322,47.133,233.135,47.169z"/>
		<path fill="#231815" d="M235.631,47.115l-0.325-0.216c0.433-0.827,0.714-1.726,0.837-2.696c0.155-1.008,0.234-2.428,0.234-4.265
			v-3.019c0-0.145,0-0.325,0-0.54c-0.032-0.29-0.048-0.54-0.048-0.758l0.98,0.27v0.325l-0.421,0.163v2.698h1.214v-2.698
			c0-0.432-0.016-0.865-0.048-1.297l1.024,0.27v0.27l-0.464,0.218v3.237h0.651l0.373-0.595l0.746,0.756l-0.043,0.216h-3.452v0.54
			c0,0.682-0.016,1.331-0.048,1.942h1.492l0.329-0.486l0.79,0.647v0.218l-0.464,0.214v2.266c0,0.361,0.032,0.883,0.091,1.565
			c-0.246,0.073-0.464,0.109-0.651,0.109c0.032-0.397,0.048-0.774,0.048-1.135v-3.019h-1.635
			C236.75,44.437,236.345,46.036,235.631,47.115z M245.792,35.73l0.559,0.863l-0.091,0.163l-0.373-0.163
			c-1.587,0.361-3.11,0.595-4.571,0.702v2.535h3.73l0.373-0.54l0.841,0.702l-0.048,0.214l-0.464,0.218
			c-0.373,1.978-0.917,3.434-1.635,4.368c0.778,0.829,1.678,1.313,2.706,1.458l-0.048,0.377c-0.437,0-0.73,0.145-0.885,0.432
			c-0.9-0.506-1.631-1.097-2.19-1.782c-0.655,0.684-1.678,1.331-3.079,1.942l-0.139-0.377c1.337-0.647,2.285-1.349,2.845-2.105
			c-0.655-0.934-1.107-2.426-1.353-4.477h-0.655v0.054c0.095,3.166-0.559,5.469-1.956,6.905l-0.325-0.214
			c1.242-1.583,1.817-3.777,1.722-6.582v-2.591c0-0.647-0.016-1.135-0.043-1.456l0.043-0.056l0.516,0.54
			c1.333-0.143,2.563-0.395,3.682-0.754C245.296,36.038,245.578,35.911,245.792,35.73z M245.141,40.263h-2.797
			c0.309,1.978,0.778,3.309,1.397,3.991C244.395,43.284,244.859,41.953,245.141,40.263z"/>
		<path fill="#231815" d="M248.851,36.486l0.603,0.593h4.757c0.341-0.54,0.607-1.041,0.793-1.51c0.091-0.252,0.171-0.488,0.23-0.702
			l0.932,0.593l-0.091,0.216h-0.421c-0.063,0.071-0.139,0.198-0.234,0.377c-0.31,0.468-0.559,0.81-0.746,1.026h1.865l0.373-0.54
			l0.793,0.649v0.27l-0.464,0.27v4.047c0,0.107,0,0.27,0,0.484c0.028,0.325,0.044,0.559,0.044,0.702
			c-0.123,0.107-0.31,0.163-0.559,0.163v-0.918h-3.4v1.942h3.916l0.512-0.809l0.98,0.916l-0.095,0.27h-5.313v1.079
			c-0.032,0.254-0.016,0.682,0.044,1.295c0,0.109,0,0.181,0,0.216c-0.186,0.107-0.405,0.163-0.651,0.163
			c0.032-0.575,0.048-1.079,0.048-1.512v-1.242h-5.221v-0.377h5.221v-1.942h-3.404v0.809c-0.186,0.073-0.373,0.109-0.559,0.109
			c0.028-0.361,0.048-0.829,0.048-1.404v-3.884c0-0.107,0-0.288,0-0.54c-0.032-0.359-0.048-0.611-0.048-0.756L248.851,36.486z
			 M249.363,37.458v1.996h3.404v-1.996H249.363z M249.363,39.831v1.996h3.404v-1.996H249.363z M250.343,35.191l0.186-0.216
			c0.496,0.254,0.869,0.559,1.119,0.917c0.214,0.325,0.23,0.613,0.044,0.865c-0.155,0.143-0.31,0.054-0.464-0.27
			C250.946,35.911,250.652,35.478,250.343,35.191z M256.726,37.458h-3.4v1.996h3.4V37.458z M253.326,39.831v1.996h3.4v-1.996
			H253.326z"/>
		<path fill="#231815" d="M262.162,35.137l1.024,0.593L263.094,36l-0.468,0.109c-0.06,0.107-0.139,0.306-0.23,0.591
			c-0.159,0.361-0.421,0.936-0.793,1.728v6.475c0,0.863,0.016,1.545,0.048,2.049c-0.186,0.143-0.405,0.216-0.655,0.216
			c0.032-0.54,0.048-1.222,0.048-2.049v-5.558c-0.437,0.829-0.841,1.547-1.214,2.158l-0.23-0.214
			c0.746-1.44,1.428-2.968,2.051-4.586C261.991,36.018,262.162,35.427,262.162,35.137z M262.348,46.143h4.476
			c0.651-1.869,1.135-3.704,1.444-5.503c0.095-0.432,0.139-0.863,0.139-1.293l1.214,0.43V40.1l-0.607,0.216
			c-0.464,2.194-1.055,4.136-1.77,5.826h2.051l0.559-0.754l0.976,0.917l-0.091,0.216h-8.391V46.143z M262.908,38.049h5.967
			l0.512-0.81l1.028,0.972l-0.095,0.216h-7.411V38.049z M263.701,40.156l0.325-0.163c0.651,1.331,1.071,2.769,1.258,4.317
			c0.032,0.575-0.091,0.899-0.373,0.97c-0.186,0.038-0.31-0.18-0.373-0.647C264.447,43.05,264.165,41.556,263.701,40.156z
			 M265.332,35.351l0.186-0.161c0.528,0.54,0.869,1.097,1.024,1.672c0.155,0.432,0.095,0.72-0.186,0.865
			c-0.186,0.107-0.325-0.036-0.417-0.433C265.876,36.54,265.673,35.891,265.332,35.351z"/>
	</g>
	<rect x="139.164" y="15.793" fill="#231815" width="1.845" height="33.857"/>
	<g>
		<path fill="#231815" d="M152.198,17.414l0.936,0.736h12.105l0.535-0.736l1.135,0.801v0.335l-0.599,0.335v9.764
			c0,1.202,0.02,2.206,0.064,3.007c-0.222,0.179-0.512,0.27-0.869,0.27v-1.206h-12.506v0.936c-0.266,0.135-0.556,0.202-0.869,0.202
			c0.044-1.028,0.067-2.008,0.067-2.944v-9.494c0-0.893-0.024-1.561-0.067-2.007H152.198z M165.505,18.618h-12.506v11.702h12.506
			V18.618z M155.007,23.568h3.745v-2.611h-4.817v-0.468h8.63l0.666-0.869l1.206,1.071l-0.067,0.266h-4.884v2.611h2.341l0.671-0.804
			l1.202,1.002l-0.131,0.27h-4.083v3.944h3.48l0.666-0.869l1.206,1.071l-0.067,0.266h-11.169V27.98h5.15v-3.944h-3.745V23.568z
			 M160.625,25.238l0.198-0.333c0.714,0.311,1.341,0.714,1.873,1.202c0.357,0.403,0.405,0.76,0.135,1.071
			c-0.266,0.135-0.559,0.024-0.869-0.333C161.648,26.22,161.204,25.684,160.625,25.238z"/>
		<path fill="#231815" d="M169.956,18.216h0.401c0,0.27-0.02,0.492-0.064,0.671h12.101l0.535-0.671l1.472,1.004l-0.135,0.468
			c-0.488-0.044-0.869,0.067-1.135,0.335l-1.071,1.137l-0.266-0.202l0.667-1.535h-12.169c-0.135,0.758-0.313,1.337-0.535,1.738
			c-0.27,0.446-0.559,0.603-0.869,0.468c-0.313-0.179-0.313-0.468,0-0.869C169.377,20.088,169.734,19.243,169.956,18.216z
			 M169.222,28.515l-0.202-0.401c2.809-1.248,4.817-2.563,6.019-3.946c-0.044-0.046-0.111-0.111-0.198-0.2
			c-0.226-0.268-0.425-0.444-0.603-0.536c-1.472,0.802-3.21,1.516-5.217,2.141l-0.131-0.403c2.583-0.936,4.678-1.982,6.285-3.142
			h-4.479V21.56h8.959l0.67-0.869l1.27,1.004l-0.067,0.333h-4.947c-0.579,0.401-1.202,0.782-1.873,1.137
			c0.98,0.669,1.738,1.494,2.274,2.474c1.559-0.71,2.876-1.424,3.948-2.139c0.266-0.222,0.512-0.492,0.734-0.803l1.071,0.936
			l-0.135,0.335l-0.671-0.202c-0.71,0.448-1.559,0.893-2.539,1.339c1.202,2.676,2.896,4.414,5.083,5.215l-0.203,0.268
			c-0.579-0.133-0.98-0.046-1.202,0.268c-1.694-0.98-3.075-2.831-4.146-5.551c-0.179,0.089-0.448,0.2-0.801,0.333
			c-0.401,0.179-0.694,0.313-0.869,0.403c0.401,0.891,0.599,1.694,0.599,2.406c0.044,1.829-0.845,2.92-2.674,3.277
			c0.087-0.401-0.559-0.669-1.94-0.802l0.067-0.401c2.765,0.577,4.011-0.113,3.745-2.075c0-0.623-0.111-1.226-0.333-1.805
			c-2.186,1.916-4.793,3.412-7.824,4.481l-0.202-0.468c3.031-1.161,5.594-2.744,7.689-4.747c-0.044-0.091-0.131-0.224-0.266-0.403
			c-0.179-0.355-0.357-0.625-0.535-0.804C173.837,26.266,171.718,27.535,169.222,28.515z M175.309,16.746l0.198-0.268
			c0.536,0.313,0.98,0.714,1.337,1.204c0.313,0.401,0.313,0.76,0,1.069c-0.266,0.135-0.512-0.022-0.734-0.468
			C176.019,17.926,175.753,17.414,175.309,16.746z"/>
		<path fill="#231815" d="M186.243,23.901h13.176l0.869-0.936l1.337,1.204l-0.131,0.335h-15.251V23.901z"/>
		<path fill="#231815" d="M207.346,20.624l1.404,0.671l-0.064,0.266l-0.738,0.135c-0.802,1.337-1.984,2.765-3.543,4.279l3.813-0.803
			l0.063,0.403l-4.21,1.204l-0.067,0.468l-0.27,0.133l-0.666-1.337c0.444-0.089,0.825-0.29,1.135-0.601
			c0.623-0.625,1.381-1.583,2.273-2.876l-2.607,0.468l-0.067,0.401h-0.266l-0.536-1.137c0.401-0.044,0.758-0.268,1.071-0.669
			c0.623-0.936,1.159-1.984,1.603-3.142c0.087-0.403,0.155-0.803,0.202-1.206l1.603,0.536l-0.067,0.335l-0.802,0.2
			c-0.579,1.428-1.381,2.742-2.408,3.946l2.543-0.2c0.087-0.089,0.131-0.155,0.131-0.202
			C207.104,21.493,207.259,21.07,207.346,20.624z M208.418,27.714l0.202,0.401c-0.313,0.133-0.849,0.401-1.607,0.802
			c-1.428,0.67-2.428,1.139-3.007,1.405l-0.067,0.401l-0.27,0.067l-0.599-1.137c0.401-0.089,0.825-0.2,1.27-0.335
			c0.579-0.177,1.516-0.555,2.809-1.135C207.684,28.003,208.104,27.847,208.418,27.714z M219.451,30.721l-0.131,0.468
			c-0.536-0.044-0.893,0.091-1.071,0.403c-1.202-0.492-2.317-1.115-3.345-1.873c-1.024,0.847-2.539,1.627-4.547,2.341l-0.266-0.468
			c2.139-0.893,3.543-1.694,4.21-2.408c-1.293-1.426-2.337-3.432-3.142-6.019c-0.309,3.523-1.583,6.398-3.813,8.627l-0.401-0.333
			c2.587-2.809,3.813-7.112,3.678-12.908h-2.341v-0.468h7.558l0.536-0.534l0.936,0.801l-0.067,0.333l-0.603,0.135l-1.468,4.079
			h1.805l0.599-0.669l1.139,0.936l-0.135,0.335l-0.599,0.2c-0.627,2.406-1.452,4.211-2.476,5.418
			C216.265,29.785,217.579,30.321,219.451,30.721z M214.036,22.897c0.222-0.044,0.357-0.177,0.401-0.401l1.404-3.946h-4.412
			c0,1.248-0.048,2.363-0.135,3.343c0.936,3.122,2.119,5.352,3.543,6.689c0.98-1.026,1.762-2.765,2.341-5.217h-2.071l-0.337,0.401
			c-0.266-0.222-0.512-0.444-0.734-0.666C213.944,23.056,213.944,22.988,214.036,22.897z"/>
		<path fill="#231815" d="M234.338,31.792v-0.536h-11.839l-0.468,0.536c-0.222-0.179-0.468-0.401-0.734-0.669
			c-0.048-0.133-0.048-0.2,0-0.2c0.401-0.268,0.579-0.492,0.535-0.67v-3.277c0-0.488-0.024-1.024-0.067-1.603l1.337,0.266v0.27
			l-0.468,0.266v4.547h5.348v-6.552h-4.88l-0.535,0.533c-0.179-0.222-0.401-0.468-0.671-0.734c-0.044-0.089-0.044-0.157,0-0.202
			c0.405-0.266,0.579-0.512,0.536-0.734v-2.674c0-0.492-0.024-1.028-0.067-1.607l1.337,0.268v0.335l-0.464,0.2v4.079h4.745V18.35
			c0-0.49-0.024-0.98-0.067-1.472l1.472,0.335v0.335l-0.599,0.198v5.886h4.88v-3.343c0-0.536-0.024-1.093-0.067-1.672l1.404,0.268
			v0.333l-0.536,0.202v2.875c0,0.581,0.044,1.315,0.135,2.208c-0.266,0.133-0.579,0.222-0.936,0.266v-0.601h-4.88v6.552h5.551v-3.61
			c0-0.49-0.024-1.024-0.067-1.605l1.404,0.268v0.268l-0.536,0.268v3.21c0,0.089,0,0.312,0,0.669
			c0.044,0.625,0.067,1.093,0.067,1.404C234.893,31.681,234.603,31.749,234.338,31.792z"/>
		<path fill="#231815" d="M237.916,31.725l-0.468-0.266c0.627-1.027,1.028-2.142,1.206-3.345c0.222-1.248,0.333-3.009,0.333-5.285
			v-3.743c0-0.177,0-0.403,0-0.669c-0.043-0.357-0.067-0.671-0.067-0.936l1.405,0.333v0.401l-0.603,0.202v3.345h1.738v-3.345
			c0-0.536-0.02-1.071-0.063-1.607l1.468,0.335v0.335l-0.667,0.266v4.015h0.936l0.535-0.738l1.067,0.936l-0.063,0.268h-4.951v0.669
			c0,0.849-0.02,1.65-0.064,2.408h2.139l0.468-0.603l1.135,0.804v0.268l-0.666,0.268v2.807c0,0.448,0.044,1.095,0.131,1.94
			c-0.357,0.089-0.667,0.135-0.936,0.135c0.048-0.492,0.067-0.96,0.067-1.404v-3.745h-2.337
			C239.523,28.404,238.944,30.388,237.916,31.725z M252.497,17.614l0.802,1.069l-0.135,0.202l-0.536-0.202
			c-2.273,0.448-4.456,0.738-6.55,0.871v3.142h5.348l0.536-0.669l1.202,0.869l-0.067,0.268l-0.667,0.268
			c-0.535,2.452-1.317,4.257-2.341,5.416c1.115,1.027,2.408,1.629,3.876,1.807l-0.064,0.468c-0.627,0-1.051,0.177-1.273,0.534
			c-1.293-0.623-2.341-1.359-3.142-2.206c-0.936,0.847-2.408,1.649-4.412,2.408l-0.202-0.468c1.916-0.803,3.277-1.672,4.079-2.609
			c-0.936-1.158-1.583-3.009-1.936-5.551h-0.936v0.065c0.131,3.924-0.805,6.779-2.809,8.562l-0.468-0.268
			c1.782-1.962,2.607-4.682,2.472-8.159v-3.21c0-0.802-0.024-1.404-0.067-1.805l0.067-0.067l0.738,0.669
			c1.916-0.177,3.678-0.49,5.281-0.936C251.783,17.993,252.183,17.839,252.497,17.614z M251.561,23.232h-4.015
			c0.448,2.452,1.115,4.102,2.008,4.949C250.489,26.976,251.16,25.329,251.561,23.232z"/>
		<path fill="#231815" d="M255.274,26.91l-0.333-0.401c2.182-1.827,3.745-3.878,4.682-6.152h-4.349V19.89h4.349l0.468-0.671
			l1.071,0.869l-0.067,0.335l-0.671,0.133c-0.492,1.071-1.115,2.097-1.873,3.077v0.2c1.158,0.492,2.008,0.96,2.543,1.405
			c0.401,0.492,0.488,0.869,0.266,1.139c-0.222,0.222-0.492,0.155-0.801-0.202c-0.536-0.712-1.206-1.337-2.008-1.873v5.551
			c0,0.179,0,0.425,0,0.736c0.044,0.446,0.067,0.803,0.067,1.069c-0.266,0.135-0.559,0.179-0.869,0.135
			c0-0.357,0.02-0.782,0.067-1.27c0-0.224,0-0.381,0-0.468V24.57C257.06,25.417,256.211,26.198,255.274,26.91z M256.881,17.081
			l0.266-0.202c0.671,0.401,1.182,0.849,1.539,1.337c0.266,0.448,0.266,0.825,0,1.139c-0.27,0.133-0.492,0-0.671-0.401
			C257.706,18.15,257.325,17.525,256.881,17.081z M260.825,22.697h3.813v-4.079c0-0.579-0.024-1.161-0.067-1.74l1.674,0.335v0.335
			l-0.805,0.333v4.815h2.543l0.734-0.934l1.405,1.135l-0.135,0.335h-4.547v7.356h3.412l0.734-0.803l1.472,1.004l-0.135,0.335
			h-11.633v-0.536h5.348v-7.356h-3.813V22.697z"/>
	</g>
	<g>
		<g>
			<path fill="#231815" d="M43.265,48.307h0.96v-5.36h-0.96v-0.248h2.948c1.301,0.048,1.988,0.579,2.059,1.597
				c-0.024,1.16-0.758,1.74-2.202,1.74h-1.313v2.271h1.206v0.284h-2.698V48.307z M44.757,45.752h1.349
				c1.039,0,1.563-0.486,1.563-1.456c0-0.899-0.547-1.349-1.635-1.349h-1.278V45.752z"/>
			<path fill="#231815" d="M48.173,42.699h2.341v0.248h-1.063v3.48c0.024,1.325,0.639,2,1.845,2.021
				c1.206-0.046,1.821-0.696,1.845-1.952v-3.549h-1.063v-0.248h2.305v0.248h-0.746v3.549c-0.048,1.397-0.825,2.107-2.341,2.131
				c-1.587,0-2.377-0.71-2.377-2.131v-3.549h-0.746V42.699z"/>
			<path fill="#231815" d="M54.743,48.307h0.924v-5.36h-0.924v-0.248h3.126c1.23,0,1.857,0.46,1.881,1.385
				c-0.048,0.758-0.544,1.242-1.492,1.454c0.996,0.048,1.539,0.522,1.635,1.42c-0.095,0.994-0.722,1.537-1.881,1.633h-3.269V48.307z
				 M56.235,45.433h1.563c0.853-0.048,1.302-0.462,1.349-1.244c-0.024-0.803-0.44-1.218-1.242-1.242h-1.67V45.433z M56.235,48.307
				h1.456c1.039-0.024,1.575-0.474,1.599-1.349c-0.048-0.803-0.536-1.218-1.456-1.242h-1.599V48.307z"/>
			<path fill="#231815" d="M65.114,46.746v1.845h-4.86v-0.284h0.992v-5.36h-0.992v-0.248h2.734v0.248h-1.206v5.36h2.801v-1.561
				H65.114z"/>
			<path fill="#231815" d="M66.364,42.947h-0.992v-0.248h2.519v0.248H66.9v5.36h0.992v0.284h-2.519v-0.284h0.992V42.947z"/>
			<path fill="#231815" d="M71.839,42.699h0.496v1.916h-0.496c-0.048-1.182-0.579-1.775-1.599-1.775
				c-0.849,0.048-1.301,0.474-1.349,1.279c-0.048,0.591,0.5,1.028,1.635,1.313c1.325,0.308,1.976,0.839,1.952,1.597
				c-0.072,1.042-0.71,1.573-1.916,1.597c-0.877,0.024-1.48-0.224-1.813-0.746v0.71h-0.496v-1.952h0.496
				c0.095,1.206,0.643,1.809,1.634,1.809c0.968-0.022,1.468-0.496,1.492-1.418c0.024-0.569-0.532-1.018-1.67-1.349
				c-1.325-0.308-1.976-0.805-1.952-1.492c0.048-1.016,0.686-1.549,1.916-1.597c0.781,0,1.337,0.262,1.67,0.782V42.699z"/>
			<path fill="#231815" d="M77.029,48.307h0.992v-2.591h-3.618v2.591h1.027v0.284h-2.484v-0.284h0.956v-5.36h-0.956v-0.248h2.484
				v0.248h-1.027v2.519h3.618v-2.519h-0.992v-0.248h2.484v0.248h-0.96v5.36h0.96v0.284h-2.484V48.307z"/>
			<path fill="#231815" d="M80.976,42.947h-0.996v-0.248H82.5v0.248h-0.992v5.36H82.5v0.284h-2.519v-0.284h0.996V42.947z"/>
			<path fill="#231815" d="M83.29,42.947h-0.889v-0.248h1.635l3.547,5.43v-5.182h-0.956v-0.248h2.341v0.248h-0.849v5.644h-0.817
				l-3.48-5.431v5.148h0.96v0.284h-2.38v-0.284h0.889V42.947z"/>
			<path fill="#231815" d="M93.907,42.699h0.496v1.988h-0.496c-0.095-1.158-0.758-1.763-1.988-1.811
				c-1.559,0.072-2.365,0.994-2.412,2.769c0.048,1.752,0.829,2.662,2.341,2.734c1.278-0.048,1.952-0.674,2.023-1.882v-0.46h-1.135
				v-0.284h2.484v0.284h-0.782v2.555h-0.567V47.74c-0.424,0.567-1.087,0.863-1.988,0.887c-1.916-0.048-2.92-1.041-3.015-2.982
				c0.095-1.988,1.123-3.005,3.087-3.053c0.829,0,1.48,0.319,1.952,0.958V42.699z"/>
			<path fill="#231815" d="M101.516,48.307h0.996v-2.591H98.89v2.591h1.032v0.284h-2.484v-0.284h0.956v-5.36h-0.956v-0.248h2.484
				v0.248H98.89v2.519h3.622v-2.519h-0.996v-0.248h2.488v0.248h-0.96v5.36h0.96v0.284h-2.488V48.307z"/>
			<path fill="#231815" d="M107.63,42.592c1.916,0.071,2.924,1.089,3.019,3.053c-0.095,1.94-1.103,2.934-3.019,2.982
				c-1.916-0.048-2.924-1.041-3.015-2.982C104.706,43.681,105.714,42.663,107.63,42.592z M107.63,48.448
				c1.563-0.046,2.365-0.98,2.412-2.803c-0.048-1.821-0.849-2.757-2.412-2.805c-1.563,0.048-2.353,0.984-2.377,2.805
				C105.278,47.468,106.067,48.402,107.63,48.448z"/>
			<path fill="#231815" d="M111.046,42.699h2.341v0.248h-1.063v3.48c0.024,1.325,0.639,2,1.845,2.021
				c1.206-0.046,1.821-0.696,1.845-1.952v-3.549h-1.063v-0.248h2.305v0.248h-0.746v3.549c-0.048,1.397-0.825,2.107-2.341,2.131
				c-1.587,0-2.377-0.71-2.377-2.131v-3.549h-0.746V42.699z"/>
			<path fill="#231815" d="M121.203,42.699h0.496v1.916h-0.496c-0.048-1.182-0.579-1.775-1.599-1.775
				c-0.849,0.048-1.301,0.474-1.345,1.279c-0.052,0.591,0.496,1.028,1.631,1.313c1.325,0.308,1.976,0.839,1.952,1.597
				c-0.072,1.042-0.71,1.573-1.916,1.597c-0.877,0.024-1.48-0.224-1.809-0.746v0.71h-0.5v-1.952h0.5
				c0.091,1.206,0.639,1.809,1.631,1.809c0.972-0.022,1.468-0.496,1.492-1.418c0.024-0.569-0.532-1.018-1.666-1.349
				c-1.329-0.308-1.98-0.805-1.956-1.492c0.048-1.016,0.686-1.549,1.92-1.597c0.778,0,1.333,0.262,1.666,0.782V42.699z"/>
			<path fill="#231815" d="M122.417,48.307h0.96v-5.36h-0.96v-0.248h5.11v1.633h-0.496v-1.385h-3.122v2.486h1.666v-0.96h0.496v2.273
				h-0.496v-1.03h-1.666v2.591h3.158v-1.492h0.496v1.775h-5.146V48.307z"/>
		</g>
	</g>
	<g>
		<path fill="#231815" d="M51.676,41.606h3.547v0.401h-4.749c-0.135,0-0.29,0-0.468,0c-0.091,0-0.179,0-0.266,0
			c-0.27,0.034-0.559,0.05-0.873,0.05c-3.567-0.065-5.44-1.47-5.614-4.21c0.174-2.775,2.047-4.211,5.614-4.313
			c3.614,0.101,5.507,1.537,5.685,4.313C54.418,39.684,53.462,40.938,51.676,41.606z M48.867,41.807
			c2.944-0.067,4.459-1.387,4.551-3.96c-0.091-2.575-1.607-3.894-4.551-3.961c-2.896,0.101-4.388,1.42-4.479,3.961
			C44.479,40.386,45.971,41.705,48.867,41.807z"/>
		<path fill="#231815" d="M58.937,34.036h-1.873v-0.351h4.749v0.351h-1.873v7.57h1.873v0.401h-4.749v-0.401h1.873V34.036z"/>
		<path fill="#231815" d="M64.325,34.036h-1.67v-0.351h3.075l6.689,7.669v-7.318h-1.805v-0.351h4.412v0.351h-1.603v7.971h-1.539
			l-6.554-7.669v7.268h1.805v0.401h-4.479v-0.401h1.67V34.036z"/>
		<path fill="#231815" d="M85.361,33.685h0.936v2.807h-0.936c-0.179-1.637-1.428-2.49-3.745-2.557
			c-2.944,0.101-4.459,1.404-4.547,3.912c0.087,2.472,1.559,3.759,4.412,3.859c2.408-0.066,3.678-0.952,3.813-2.656v-0.651h-2.138
			v-0.403h4.682v0.403h-1.472v3.609h-1.071v-1.202c-0.801,0.801-2.051,1.218-3.745,1.252c-3.61-0.065-5.507-1.47-5.681-4.21
			c0.174-2.809,2.115-4.245,5.816-4.313c1.559,0,2.785,0.452,3.678,1.355V33.685z"/>
		<path fill="#231815" d="M88.876,41.606h1.805v-7.57h-1.805v-0.351h5.15c3.924,0.067,5.951,1.454,6.086,4.162
			c-0.135,2.706-2.162,4.093-6.086,4.16h-5.15V41.606z M91.685,41.606h2.206c3.21-0.101,4.904-1.353,5.083-3.759
			c-0.222-2.406-1.916-3.678-5.083-3.811h-2.206V41.606z"/>
		<path fill="#231815" d="M101.489,41.606h1.135c0.087-0.167,0.222-0.418,0.401-0.752c1.829-3.241,3.234-5.682,4.213-7.32h1.206
			l4.678,8.072h1.071v0.401h-4.079v-0.401h1.94c-1.162-1.972-2.567-4.461-4.213-7.471c-0.448,0.803-1.163,2.039-2.142,3.712
			c-0.936,1.704-1.646,2.958-2.138,3.759h2.008v0.401h-4.079V41.606z M110.916,38.599l0.202,0.349h-6.554l0.198-0.349H110.916z"/>
		<path fill="#231815" d="M121.786,33.534c3.611,0.101,5.507,1.537,5.686,4.313c-0.179,2.74-2.075,4.144-5.686,4.21
			c-3.61-0.065-5.507-1.47-5.685-4.21C116.28,35.072,118.176,33.635,121.786,33.534z M121.786,41.807
			c2.944-0.067,4.459-1.387,4.547-3.96c-0.087-2.575-1.603-3.894-4.547-3.961c-2.944,0.067-4.436,1.387-4.479,3.961
			C117.351,40.42,118.843,41.739,121.786,41.807z"/>
	</g>
	<path fill="#D7000F" d="M25.249,33.058c-2.539,0-2.539,0-2.539,0c-0.853,0-1.595,0.69-1.595,1.591c0,0.052,0,0.052,0,0.052
		c0,0.056,0,0.056,0,0.056c0,0.052-0.583,5.729,3.761,10.815c1.222,1.329,1.222,1.329,1.222,1.329c1.432,0,1.432,0,1.432,0
		c1.857,0,3.396-1.539,3.396-3.452c0-0.052,0-0.052,0-0.052c-1.381-1.004-1.381-1.004-1.381-1.004
		C26.574,40.323,25.57,36.133,25.249,33.058L25.249,33.058z M26.895,29.503c0,0.052-0.424,8.594,3.662,11.403
		c0.369,0.266,0.369,0.266,0.369,0.266c0-18.715,0-18.715,0-18.715c-4.031,0-4.031,0-4.031,0V29.503z M17.98,17.146
		c-13.363,0-13.363,0-13.363,0c-1.857,0-3.444,1.536-3.444,3.448c0.048,22.855,0.048,22.855,0.048,22.855
		c0,1.912,1.539,3.452,3.396,3.452c18.937,0,18.937,0,18.937,0c-0.052-0.107-0.052-0.107-0.052-0.107
		c-4.987-5.725-4.241-11.986-4.241-12.248c0,0.103,0,0.103,0,0.103c0-1.912,1.536-3.499,3.448-3.499c2.384,0,2.384,0,2.384,0
		c-0.06-0.96,0-1.595,0-1.7c0-2.02,0-2.02,0-2.02c-3.345,0-3.345,0-3.345,0c-1.008,0-2.015-0.418-2.706-1.111
		c-0.635-0.633-1.008-1.486-1.008-2.388c0-6.731,0-6.731,0-6.731L17.98,17.146z M19.896,17.2c0,6.731,0,6.731,0,6.731
		c0,0.373,0.159,0.744,0.476,1.065c0.318,0.371,0.845,0.53,1.377,0.53c3.345,0,3.345,0,3.345,0l0.016-4.922l5.816-0.01
		c0-1.912-1.539-3.448-3.396-3.448c-7.582,0-7.582,0-7.582,0L19.896,17.2z M2.975,20.594c0-0.907,0.738-1.647,1.642-1.647
		c7.638,0,7.638,0,7.638,0c0,4.983,0,4.983,0,4.983c0,0.903-0.845,1.595-1.857,1.595c-3.341,0-3.341,0-3.341,0
		c0-3.069,0-3.069,0-3.069l0.024-1.813c-4.321,0-4.106,0-4.106,0V20.594z M5.26,22.457c0,6.993,0,6.993,0,6.993
		c0,0.105,0.258,6.525-2.285,10.028c0-17.021,0-17.021,0-17.021H5.26z M4.617,45.1c-0.905,0-1.642-0.75-1.642-1.65
		c0-1.377,0-1.377,0-1.377c2.654-2.174,3.61-6.098,3.924-9.014c2.599,0,2.599,0,2.599,0c0.793,0,1.488,0.69,1.488,1.591
		c0,0.052,0,0.052,0,0.052c0.048,0.056,0.048,0.056,0.048,0.056c0,0.052,0.532,5.412-3.392,10.343H4.617z M16.024,45.1
		c-6.102,0-6.102,0-6.102,0c3.555-5.202,2.968-10.343,2.968-10.554c0,0.103,0,0.103,0,0.103c0-1.912-1.535-3.499-3.392-3.499
		c-2.44,0-2.44,0-2.44,0c0.056-0.96,0-1.647,0-1.754c0-1.966,0-1.966,0-1.966c3.341,0,3.341,0,3.341,0
		c2.071,0,3.714-1.589,3.714-3.499c0-4.983,0-4.983,0-4.983c1.912,0,1.912,0,1.912,0V45.1z"/>
</g>
</svg>
