<?xml version="1.0" encoding="utf-8"?>
<!-- Generator: Adobe Illustrator 17.0.0, SVG Export Plug-In . SVG Version: 6.00 Build 0)  -->
<!DOCTYPE svg PUBLIC "-//W3C//DTD SVG 1.1//EN" "http://www.w3.org/Graphics/SVG/1.1/DTD/svg11.dtd">
<svg version="1.1" id="图层_1" xmlns="http://www.w3.org/2000/svg" xmlns:xlink="http://www.w3.org/1999/xlink" x="0px" y="0px"
	 width="180px" height="60px" viewBox="0 0 180 60" enable-background="new 0 0 180 60" xml:space="preserve">
<g>
	<g>
		<path fill="#FFFFFF" d="M94.547,52.229c0-1.371,0.379-2.387,1.138-3.047c0.634-0.548,1.406-0.823,2.317-0.823
			c1.013,0,1.841,0.334,2.484,1.001c0.643,0.667,0.965,1.589,0.965,2.765c0,0.953-0.142,1.703-0.427,2.249
			c-0.284,0.546-0.698,0.97-1.242,1.272c-0.543,0.302-1.137,0.453-1.779,0.453c-1.031,0-1.865-0.332-2.501-0.997
			C94.865,54.438,94.547,53.48,94.547,52.229z M95.831,52.229c0,0.949,0.206,1.659,0.618,2.131c0.412,0.472,0.93,0.708,1.554,0.708
			c0.62,0,1.135-0.237,1.547-0.711c0.412-0.474,0.618-1.197,0.618-2.169c0-0.916-0.207-1.61-0.621-2.082
			c-0.414-0.472-0.929-0.708-1.544-0.708c-0.624,0-1.143,0.235-1.554,0.705C96.037,50.572,95.831,51.281,95.831,52.229z"/>
		<path fill="#FFFFFF" d="M102.45,52.229c0-1.371,0.379-2.387,1.138-3.047c0.634-0.548,1.406-0.823,2.317-0.823
			c1.013,0,1.841,0.334,2.484,1.001c0.643,0.667,0.965,1.589,0.965,2.765c0,0.953-0.142,1.703-0.427,2.249
			c-0.284,0.546-0.698,0.97-1.242,1.272c-0.543,0.302-1.137,0.453-1.779,0.453c-1.031,0-1.865-0.332-2.501-0.997
			C102.768,54.438,102.45,53.48,102.45,52.229z M103.734,52.229c0,0.949,0.206,1.659,0.618,2.131
			c0.412,0.472,0.93,0.708,1.554,0.708c0.62,0,1.135-0.237,1.547-0.711c0.412-0.474,0.618-1.197,0.618-2.169
			c0-0.916-0.207-1.61-0.621-2.082c-0.414-0.472-0.929-0.708-1.544-0.708c-0.624,0-1.143,0.235-1.554,0.705
			C103.939,50.572,103.734,51.281,103.734,52.229z"/>
		<path fill="#FFFFFF" d="M110.158,55.932v-1.018l4.69-5.411c-0.532,0.028-1.002,0.042-1.409,0.042h-3.004v-1.018h6.022v0.83
			l-3.989,4.7l-0.77,0.858c0.559-0.042,1.085-0.063,1.575-0.063h3.407v1.081H110.158z"/>
		<path fill="#FFFFFF" d="M122.752,55.932v-1.088c-0.574,0.837-1.353,1.255-2.338,1.255c-0.435,0-0.841-0.084-1.218-0.251
			c-0.377-0.167-0.657-0.378-0.84-0.631c-0.183-0.253-0.311-0.564-0.385-0.931c-0.051-0.246-0.076-0.637-0.076-1.172v-4.588h1.249
			v4.107c0,0.655,0.025,1.097,0.076,1.325c0.079,0.33,0.245,0.589,0.5,0.778c0.254,0.188,0.569,0.282,0.944,0.282
			c0.375,0,0.726-0.096,1.055-0.289c0.329-0.193,0.561-0.456,0.697-0.788c0.136-0.332,0.205-0.814,0.205-1.447v-3.968h1.249v7.406
			H122.752z"/>
		<path fill="#FFFFFF" d="M125.36,52.229c0-1.371,0.379-2.387,1.138-3.047c0.634-0.548,1.406-0.823,2.317-0.823
			c1.013,0,1.841,0.334,2.484,1.001c0.643,0.667,0.965,1.589,0.965,2.765c0,0.953-0.142,1.703-0.427,2.249
			c-0.284,0.546-0.698,0.97-1.242,1.272c-0.543,0.302-1.137,0.453-1.779,0.453c-1.031,0-1.865-0.332-2.501-0.997
			C125.678,54.438,125.36,53.48,125.36,52.229z M126.644,52.229c0,0.949,0.206,1.659,0.618,2.131
			c0.412,0.472,0.93,0.708,1.554,0.708c0.62,0,1.135-0.237,1.547-0.711c0.412-0.474,0.618-1.197,0.618-2.169
			c0-0.916-0.207-1.61-0.621-2.082c-0.414-0.472-0.929-0.708-1.544-0.708c-0.624,0-1.143,0.235-1.554,0.705
			C126.85,50.572,126.644,51.281,126.644,52.229z"/>
		<path fill="#FFFFFF" d="M133.673,58.784l-0.139-1.178c0.273,0.074,0.511,0.112,0.715,0.112c0.278,0,0.5-0.047,0.666-0.14
			c0.167-0.093,0.303-0.223,0.409-0.39c0.079-0.126,0.206-0.437,0.382-0.935c0.023-0.069,0.06-0.172,0.111-0.307l-2.796-7.419h1.346
			l1.533,4.288c0.199,0.544,0.377,1.116,0.534,1.715c0.143-0.576,0.314-1.139,0.513-1.688l1.575-4.316h1.249l-2.803,7.531
			c-0.301,0.813-0.534,1.374-0.701,1.68c-0.222,0.414-0.476,0.717-0.763,0.91c-0.287,0.193-0.629,0.289-1.027,0.289
			C134.237,58.938,133.968,58.887,133.673,58.784z"/>
		<path fill="#FFFFFF" d="M145.877,53.547l1.291,0.161c-0.204,0.758-0.581,1.346-1.131,1.764c-0.55,0.418-1.254,0.628-2.109,0.628
			c-1.078,0-1.932-0.334-2.564-1.001c-0.632-0.667-0.947-1.602-0.947-2.807c0-1.246,0.319-2.213,0.957-2.901
			c0.638-0.688,1.466-1.032,2.484-1.032c0.985,0,1.79,0.337,2.415,1.011c0.624,0.674,0.937,1.623,0.937,2.845
			c0,0.074-0.003,0.186-0.007,0.335h-5.495c0.046,0.813,0.275,1.436,0.687,1.869c0.412,0.432,0.925,0.649,1.541,0.649
			c0.458,0,0.848-0.121,1.172-0.363C145.43,54.463,145.687,54.077,145.877,53.547z M141.776,51.518h4.114
			c-0.056-0.623-0.213-1.09-0.472-1.402c-0.398-0.483-0.914-0.725-1.547-0.725c-0.574,0-1.056,0.193-1.447,0.579
			C142.034,50.356,141.818,50.872,141.776,51.518z"/>
		<path fill="#FFFFFF" d="M149.089,55.932v-1.43h1.422v1.43H149.089z"/>
		<path fill="#FFFFFF" d="M157.491,53.22l1.228,0.161c-0.134,0.851-0.478,1.517-1.03,1.998c-0.553,0.481-1.232,0.722-2.037,0.722
			c-1.008,0-1.819-0.331-2.432-0.994c-0.613-0.663-0.919-1.612-0.919-2.849c0-0.799,0.132-1.499,0.396-2.099
			c0.263-0.6,0.665-1.05,1.204-1.349c0.539-0.3,1.125-0.45,1.759-0.45c0.8,0,1.454,0.203,1.964,0.61
			c0.509,0.407,0.835,0.984,0.978,1.733l-1.214,0.188c-0.116-0.497-0.32-0.872-0.614-1.123c-0.294-0.251-0.649-0.376-1.065-0.376
			c-0.629,0-1.14,0.227-1.533,0.68c-0.393,0.453-0.59,1.171-0.59,2.151c0,0.995,0.19,1.718,0.569,2.169
			c0.379,0.451,0.874,0.677,1.485,0.677c0.49,0,0.9-0.151,1.228-0.453C157.196,54.312,157.404,53.847,157.491,53.22z"/>
		<path fill="#FFFFFF" d="M159.323,52.229c0-1.371,0.379-2.387,1.138-3.047c0.634-0.548,1.406-0.823,2.317-0.823
			c1.013,0,1.841,0.334,2.484,1.001c0.643,0.667,0.965,1.589,0.965,2.765c0,0.953-0.142,1.703-0.427,2.249
			c-0.284,0.546-0.698,0.97-1.242,1.272c-0.543,0.302-1.137,0.453-1.78,0.453c-1.031,0-1.865-0.332-2.501-0.997
			C159.641,54.438,159.323,53.48,159.323,52.229z M160.607,52.229c0,0.949,0.206,1.659,0.618,2.131
			c0.412,0.472,0.93,0.708,1.554,0.708c0.62,0,1.135-0.237,1.547-0.711c0.412-0.474,0.618-1.197,0.618-2.169
			c0-0.916-0.207-1.61-0.621-2.082c-0.414-0.472-0.929-0.708-1.544-0.708c-0.624,0-1.143,0.235-1.554,0.705
			C160.813,50.572,160.607,51.281,160.607,52.229z"/>
		<path fill="#FFFFFF" d="M167.691,55.932v-7.406h1.117v1.039c0.231-0.362,0.539-0.654,0.923-0.875
			c0.384-0.22,0.821-0.331,1.311-0.331c0.546,0,0.993,0.114,1.343,0.342c0.349,0.228,0.595,0.546,0.739,0.955
			c0.583-0.865,1.342-1.297,2.276-1.297c0.731,0,1.293,0.203,1.686,0.61c0.393,0.407,0.59,1.033,0.59,1.879v5.084h-1.242v-4.665
			c0-0.502-0.041-0.863-0.121-1.084c-0.081-0.221-0.228-0.399-0.441-0.534c-0.213-0.135-0.463-0.202-0.749-0.202
			c-0.518,0-0.949,0.173-1.291,0.52c-0.343,0.346-0.513,0.901-0.513,1.663v4.303h-1.249v-4.812c0-0.558-0.102-0.976-0.305-1.255
			c-0.204-0.279-0.537-0.418-0.999-0.418c-0.352,0-0.676,0.093-0.975,0.279c-0.298,0.186-0.515,0.458-0.649,0.816
			c-0.134,0.358-0.202,0.874-0.202,1.548v3.842H167.691z"/>
	</g>
</g>
<g>
	<g>
		<path fill="#FFFFFF" d="M97.936,22.606c1.309-0.8,3.074-1.201,5.294-1.201c3.188-0.057,5.465,0.257,6.832,0.944
			c2.959,1.202,4.411,3.233,4.355,6.094c0,0.287,0,0.772,0,1.459c0.056,3.319-0.057,5.78-0.342,7.381
			c-0.341,2.803-2.305,4.148-5.892,4.034c-0.399,0-0.969,0-1.708,0c-2.22,0.057-4.043,0.028-5.465-0.086
			c-2.847-0.287-4.726-1.231-5.636-2.832c-0.512-1.316-0.798-3.805-0.854-7.467C94.52,26.697,95.659,23.923,97.936,22.606z
			 M111.514,34.107c0.284-1.03,0.37-2.345,0.256-3.948c-0.171-1.659-0.456-2.803-0.854-3.433c-1.196-2.002-3.36-2.946-6.49-2.832
			c-3.644-0.056-5.751,1.202-6.319,3.776c-0.228,1.259-0.314,2.718-0.256,4.377c0.114,1.489,0.342,2.604,0.683,3.347
			c1.081,2.117,3.102,3.233,6.063,3.347C108.581,38.971,110.887,37.426,111.514,34.107z M100.327,26.983
			c1.309,0,2.22-0.371,2.733-1.116c0.568-1.086,1.195-1.573,1.878-1.459c0.569,0,1.025,0.515,1.366,1.545
			c0.341,0.858,1.394,1.259,3.16,1.202c0.796,0,1.223,0.229,1.281,0.687c0.171,0.63-0.341,0.944-1.537,0.944
			c-0.57,0-0.826,0.143-0.768,0.429c0,0.172,0.199,0.258,0.598,0.258c1.081-0.172,1.708,0,1.878,0.515
			c0.284,0.63,0.284,1.088,0,1.373c-0.228,0.229-0.171,0.601,0.171,1.116c0.227,0.401,0.199,0.83-0.085,1.288
			c-0.627,0.573-1.366,0.429-2.22-0.429c-1.025-1.258-2.192-1.859-3.501-1.802c-1.423-0.172-2.704,0.429-3.842,1.802
			c-0.798,0.744-1.509,0.916-2.135,0.515c-0.627-0.457-0.798-0.886-0.512-1.288c0-0.056,0.028-0.114,0.085-0.171
			c0.284-0.457,0.342-0.743,0.171-0.858c-0.683-0.457-0.911-0.915-0.683-1.373c0.227-0.571,0.796-0.858,1.708-0.858
			c0.227,0,0.37-0.086,0.427-0.257c0-0.228-0.115-0.344-0.341-0.344c-1.082-0.056-1.481-0.457-1.196-1.201
			C99.074,27.155,99.53,26.983,100.327,26.983z M101.694,26.554c-0.798,0.287-1.31,0.143-1.537-0.429
			c-0.228-0.457-0.057-0.858,0.512-1.202c0.796-0.4,1.366-0.371,1.708,0.086C102.832,25.468,102.604,25.983,101.694,26.554z
			 M104.426,32.133c1.025-0.056,1.821,0.115,2.391,0.515c0.739,0.401,1.025,1.06,0.854,1.974c-0.341,0.802-1.167,1.116-2.476,0.944
			c-0.399-0.114-0.627-0.457-0.683-1.03c0.056-0.4,0.256-0.571,0.598-0.515c0.284,0.058,0.398-0.057,0.341-0.344
			c-0.228-0.515-0.627-0.629-1.196-0.343c-0.57,0.63-0.598,1.403-0.085,2.317c0.739,0.744,1.907,0.716,3.501-0.086
			c0.854-0.457,1.508-0.515,1.964-0.172c0.513,0.687,0.284,1.403-0.683,2.146c-1.082,0.63-2.306,0.888-3.672,0.773
			c-1.652-0.228-2.762-0.657-3.33-1.288c-0.798-0.915-0.94-1.916-0.427-3.004C102.262,32.935,103.231,32.304,104.426,32.133z
			 M107.33,24.752c0.626-0.228,1.166-0.114,1.622,0.343c0.568,0.573,0.654,1.03,0.256,1.373c-0.627,0.459-1.31,0.373-2.049-0.257
			C106.817,25.696,106.873,25.21,107.33,24.752z"/>
		<path fill="#FFFFFF" d="M119.797,22.606c1.309-0.8,3.074-1.201,5.294-1.201c3.188-0.057,5.465,0.257,6.832,0.944
			c2.959,1.202,4.411,3.233,4.355,6.094c0,0.287,0,0.772,0,1.459c0.056,3.319-0.057,5.78-0.342,7.381
			c-0.341,2.803-2.305,4.148-5.892,4.034c-0.399,0-0.969,0-1.708,0c-2.22,0.057-4.043,0.028-5.465-0.086
			c-2.847-0.287-4.726-1.231-5.636-2.832c-0.512-1.316-0.798-3.805-0.854-7.467C116.381,26.697,117.52,23.923,119.797,22.606z
			 M133.375,34.107c0.284-1.03,0.37-2.345,0.256-3.948c-0.171-1.659-0.456-2.803-0.854-3.433c-1.196-2.002-3.36-2.946-6.49-2.832
			c-3.644-0.056-5.751,1.202-6.319,3.776c-0.228,1.259-0.314,2.718-0.256,4.377c0.114,1.489,0.342,2.604,0.683,3.347
			c1.081,2.117,3.102,3.233,6.063,3.347C130.442,38.971,132.748,37.426,133.375,34.107z M122.188,26.983
			c1.309,0,2.22-0.371,2.733-1.116c0.568-1.086,1.195-1.573,1.878-1.459c0.569,0,1.025,0.515,1.366,1.545
			c0.341,0.858,1.394,1.259,3.16,1.202c0.796,0,1.223,0.229,1.281,0.687c0.171,0.63-0.341,0.944-1.537,0.944
			c-0.57,0-0.826,0.143-0.768,0.429c0,0.172,0.199,0.258,0.598,0.258c1.081-0.172,1.708,0,1.878,0.515
			c0.284,0.63,0.284,1.088,0,1.373c-0.228,0.229-0.171,0.601,0.171,1.116c0.227,0.401,0.199,0.83-0.085,1.288
			c-0.627,0.573-1.366,0.429-2.22-0.429c-1.025-1.258-2.192-1.859-3.501-1.802c-1.423-0.172-2.704,0.429-3.842,1.802
			c-0.798,0.744-1.509,0.916-2.135,0.515c-0.627-0.457-0.798-0.886-0.512-1.288c0-0.056,0.028-0.114,0.085-0.171
			c0.284-0.457,0.342-0.743,0.171-0.858c-0.683-0.457-0.911-0.915-0.683-1.373c0.227-0.571,0.796-0.858,1.708-0.858
			c0.227,0,0.37-0.086,0.427-0.257c0-0.228-0.115-0.344-0.341-0.344c-1.082-0.056-1.481-0.457-1.196-1.201
			C120.935,27.155,121.39,26.983,122.188,26.983z M123.555,26.554c-0.798,0.287-1.31,0.143-1.537-0.429
			c-0.228-0.457-0.057-0.858,0.512-1.202c0.796-0.4,1.366-0.371,1.708,0.086C124.693,25.468,124.465,25.983,123.555,26.554z
			 M126.287,32.133c1.025-0.056,1.821,0.115,2.391,0.515c0.739,0.401,1.025,1.06,0.854,1.974c-0.341,0.802-1.167,1.116-2.476,0.944
			c-0.399-0.114-0.627-0.457-0.683-1.03c0.056-0.4,0.256-0.571,0.598-0.515c0.284,0.058,0.398-0.057,0.341-0.344
			c-0.228-0.515-0.627-0.629-1.196-0.343c-0.57,0.63-0.598,1.403-0.085,2.317c0.739,0.744,1.907,0.716,3.501-0.086
			c0.854-0.457,1.508-0.515,1.964-0.172c0.513,0.687,0.284,1.403-0.683,2.146c-1.082,0.63-2.306,0.888-3.672,0.773
			c-1.652-0.228-2.762-0.657-3.33-1.288c-0.798-0.915-0.94-1.916-0.427-3.004C124.123,32.935,125.092,32.304,126.287,32.133z
			 M129.191,24.752c0.626-0.228,1.166-0.114,1.622,0.343c0.568,0.573,0.654,1.03,0.256,1.373c-0.627,0.459-1.31,0.373-2.049-0.257
			C128.678,25.696,128.734,25.21,129.191,24.752z"/>
		<path fill="#FFFFFF" d="M138.84,26.983c0.284-1.601,1.11-3.004,2.477-4.205c1.366-1.202,2.874-1.43,4.526-0.687
			c1.422,0.916,1.651,2.204,0.683,3.862c-0.741,1.373-1.167,2.69-1.281,3.948c-0.115,1.317,0.056,3.148,0.512,5.493
			c0,0.058,0,0.143,0,0.258c0.227,0.744,0.342,1.574,0.342,2.489c-0.171,1.83-1.196,2.861-3.074,3.09
			c-1.823-0.171-2.818-1.087-2.989-2.746c0-0.228,0-0.686,0-1.373c0.056-0.687,0.085-1.172,0.085-1.459
			c0.284-2.346,0.141-3.833-0.427-4.463C138.896,30.044,138.612,28.643,138.84,26.983z M151.052,21.748
			c1.025,0,1.821,0.287,2.391,0.858c0.455,0.515,1.11,0.802,1.964,0.858c1.65,0.172,2.504,1.002,2.562,2.489
			c-0.115,1.202-0.741,1.832-1.879,1.888c-0.968,0-1.452,0.343-1.452,1.03c-0.057,0.515,0.398,0.716,1.366,0.601
			c1.309-0.057,2.02,0.343,2.135,1.202c-0.057,1.088-0.798,1.688-2.22,1.802c-0.969,0-1.452,0.315-1.452,0.944
			c0.114,0.573,0.683,0.888,1.708,0.944c1.252,0.172,1.907,0.687,1.964,1.545c-0.057,1.03-0.769,1.631-2.135,1.802
			c-0.911,0.058-1.481,0.573-1.708,1.545c-0.512,1.487-1.68,2.232-3.501,2.232c-2.22,0.056-3.189-1.946-2.903-6.008
			c0-0.056,0-0.2,0-0.429c0.056-1.717-0.085-2.803-0.427-3.261c-0.512-0.515-0.741-1.374-0.683-2.575
			c0-0.914,0.227-2.088,0.683-3.519C148.49,22.949,149.685,21.633,151.052,21.748z"/>
		<path fill="#FFFFFF" d="M162.238,23.636c0.854-0.057,1.422,0.373,1.708,1.287c0.342,0.858,0.54,2.146,0.598,3.862
			c0.056,1.946-0.085,3.205-0.427,3.776c-0.399,0.916-0.939,1.373-1.622,1.373c-0.741,0-1.31-0.344-1.708-1.03
			c-0.399-1.086-0.598-2.489-0.598-4.206c0-1.258,0.141-2.545,0.427-3.862C160.842,24.037,161.384,23.636,162.238,23.636z
			 M167.532,21.49c1.366,0.058,2.078,0.974,2.135,2.746c0,0.515-0.085,1.231-0.256,2.146c-0.057,0.171-0.085,0.315-0.085,0.429
			c-0.228,1.373-0.341,2.575-0.341,3.605c0.056,1.431,0.398,2.232,1.025,2.403c0.796-0.057,1.196-0.657,1.196-1.802
			c0.056-0.801,0-1.573-0.171-2.318c-0.341-1.545-0.484-2.746-0.427-3.605c-0.057-2.403,0.626-3.547,2.049-3.433
			c1.593-0.056,2.362,1.145,2.306,3.605c0,0.916-0.085,1.946-0.256,3.09c0,0.229-0.029,0.573-0.085,1.03
			c-0.115,0.916-0.171,1.517-0.171,1.803c0.171,1.888,0.939,3.033,2.306,3.433c1.878,0.459,2.874,1.459,2.989,3.004
			c0.056,1.773-1.11,2.832-3.501,3.175c-1.253,0.228-3.217,0.344-5.893,0.344c-2.619,0-5.038-0.201-7.258-0.601
			c-1.879-0.287-2.818-1.202-2.818-2.746c0-1.545,0.939-2.517,2.818-2.918c1.593-0.571,2.447-1.745,2.562-3.519
			c0-0.399-0.029-1.086-0.085-2.06c-0.057-0.858-0.085-1.43-0.085-1.717c-0.115-1.258-0.171-2.459-0.171-3.605
			C165.368,22.378,166.109,21.548,167.532,21.49z M177.694,23.721c0.626,0.058,1.138,0.459,1.537,1.202
			c0.512,0.974,0.769,2.175,0.769,3.605c0,1.946-0.171,3.291-0.512,4.034c-0.456,0.802-0.997,1.231-1.622,1.288
			c-0.911,0-1.537-0.4-1.879-1.202c-0.341-0.915-0.542-2.146-0.598-3.691c0-1.487,0.227-2.803,0.683-3.948
			C176.469,24.151,177.011,23.721,177.694,23.721z"/>
	</g>
</g>
<g>
	<path fill="#FFFFFF" d="M28.172,43.597c-11.66,0-21.146-9.534-21.146-21.253c0-11.719,9.486-21.253,21.146-21.253
		s21.146,9.534,21.146,21.253C49.318,34.063,39.832,43.597,28.172,43.597z M28.172,6.954c-8.443,0-15.313,6.904-15.313,15.39
		s6.869,15.39,15.313,15.39s15.313-6.904,15.313-15.39S36.616,6.954,28.172,6.954z"/>
</g>
<g>
	<path fill="#FFFFFF" d="M67.79,50.559c-8.242,0-14.948-6.74-14.948-15.024s6.706-15.023,14.948-15.023s14.948,6.739,14.948,15.023
		S76.033,50.559,67.79,50.559z M67.79,24.909c-5.83,0-10.573,4.767-10.573,10.626S61.96,46.162,67.79,46.162
		s10.573-4.767,10.573-10.626S73.62,24.909,67.79,24.909z"/>
</g>
<ellipse fill="#FFFFFF" cx="22.241" cy="21.049" rx="2.552" ry="2.565"/>
<ellipse fill="#FFFFFF" cx="34.272" cy="21.049" rx="2.552" ry="2.565"/>
<ellipse fill="#FFFFFF" cx="63.7" cy="35.34" rx="1.823" ry="1.832"/>
<ellipse fill="#FFFFFF" cx="72.294" cy="35.34" rx="1.823" ry="1.832"/>
<g>
	<path fill="#FFFFFF" d="M84.092,57.834c-0.6,0-1.198-0.247-1.63-0.732c-3.734-4.192-9.082-6.596-14.671-6.596
		c-5.59,0-10.937,2.404-14.671,6.596c-0.806,0.905-2.189,0.981-3.089,0.172c-0.9-0.81-0.977-2.2-0.171-3.105
		c4.563-5.123,11.098-8.061,17.93-8.061c6.832,0,13.367,2.938,17.93,8.061c0.806,0.905,0.73,2.294-0.171,3.105
		C85.132,57.649,84.611,57.834,84.092,57.834z"/>
</g>
<path fill="#FFFFFF" d="M52.98,49.862c-6.042-7.389-15.15-11.815-24.807-11.815c-11.41,0-22.054,6.177-27.779,16.12
	c-0.807,1.401-0.331,3.194,1.063,4.005c1.394,0.812,3.179,0.332,3.985-1.069c4.686-8.138,13.396-13.194,22.731-13.194
	c8.032,0,15.599,3.745,20.541,9.975c0.097-0.156,0.206-0.307,0.332-0.448C50.237,52.098,51.557,50.903,52.98,49.862z"/>
</svg>
