<?xml version="1.0" encoding="utf-8"?>
<!-- Generator: Adobe Illustrator 17.0.0, SVG Export Plug-In . SVG Version: 6.00 Build 0)  -->
<!DOCTYPE svg PUBLIC "-//W3C//DTD SVG 1.1//EN" "http://www.w3.org/Graphics/SVG/1.1/DTD/svg11.dtd">
<svg version="1.1" id="图层_1" xmlns="http://www.w3.org/2000/svg" xmlns:xlink="http://www.w3.org/1999/xlink" x="0px" y="0px"
	 width="220px" height="80px" viewBox="0 0 220 80" enable-background="new 0 0 220 80" xml:space="preserve">
<path fill="#FFFFFF" d="M19.297,35.98v-1.333c-0.778,0.112-1.833,0.224-3.166,0.333c-2.556,0.225-4.444,0.279-5.665,0.167
	c-2.999,0-4.776-1.609-5.331-4.831c1.108,0.334,2.386,0.5,3.831,0.5c2.776,0,5.386-0.055,7.83-0.167c0.223,0,0.388-0.055,0.5-0.167
	c-0.225-0.554-0.278-1.109-0.167-1.666c0-0.109,0-0.333,0-0.667c0.776,0.224,1.942,0.111,3.499-0.333
	c1.11-0.443,2.054-0.667,2.833-0.667c2.999,0.112,4.886,0.945,5.663,2.499c0.776,0.111,1.942,0.111,3.499,0
	c1.555-0.109,2.775-0.167,3.665-0.167c4.22,0,6.331,0.945,6.331,2.832c-0.111,1.444-1.278,2.111-3.498,1.999
	c-1.224,0-2.39,0-3.499,0c-2.999,0-5.221,0-6.664,0c-0.112,0.224-0.225,0.445-0.333,0.667c0,0.225,0,0.39,0,0.5
	c1.665-0.109,3.665-0.167,5.997-0.167h0.166c4.108,0,6.165,0.723,6.165,2.166c0,1.333-1.557,1.999-4.665,1.999l-0.166-0.167
	c-2.557,0-5.165,0-7.83,0v0.999c1.442,0,3.053,0,4.831,0c0.22,0,0.499,0,0.832,0c6.665-0.222,9.997,0.89,9.997,3.332
	c0,1.444-1.224,2.111-3.665,1.999c-1.667,0.112-4,0.058-6.998-0.167c-2.999-0.22-5.277-0.333-6.83-0.333
	c-3.223,0.112-6.389,0.333-9.497,0.667c-3.111,0.334-6.165,0.5-9.163,0.5c-2.222-0.109-3.39-1.333-3.498-3.666
	c-0.112-1.554,0.609-2.775,2.166-3.665c-0.333,0.112-0.445,0.445-0.333,0.999c-0.112,0.999,0.776,1.444,2.665,1.332
	c3.441,0,6.94-0.167,10.497-0.5c0-0.442,0-0.832,0-1.166c-2.445,0.225-4.831,0.334-7.165,0.334
	c-2.665,0.224-4.332-0.999-4.999-3.666c0.333,0.224,1.442,0.279,3.332,0.167c0.888,0,1.942-0.055,3.166-0.167
	C14.632,36.313,16.519,36.203,19.297,35.98z M35.457,66.635c-3.222,0-5.277-1.444-6.164-4.331l-0.167-0.333
	c-1.224,0-2.498,0-3.831,0c-1.224,0.109-2.945,0.167-5.166,0.167c-1.999,0-3.222-0.276-3.665-0.832c0,3.552-1.278,5.331-3.831,5.331
	c-3.889-0.224-5.889-2.611-5.997-7.165c-0.112-1.109,0.054-2.832,0.499-5.165c0.443-2.22,0.667-3.942,0.667-5.165
	c0-0.667-0.058-1.442-0.166-2.333c0.554,0.224,1.054,0.333,1.499,0.333c0.554,0.112,1.442,0.279,2.665,0.5
	c5.44-0.999,11.05-1.499,16.827-1.499c9.33-0.443,13.828,2.832,13.495,9.829c0,0.445,0,0.89,0,1.333
	C42.676,63.745,40.455,66.857,35.457,66.635z M16.463,55.806v2.333c2.333-0.22,4.108-0.387,5.332-0.5
	c1.555-0.109,2.941-0.167,4.165-0.167c2.775,0,4.442,0.5,4.999,1.499c0.775-0.109,1.165-0.999,1.165-2.665
	c0.443-3.774-0.945-5.552-4.164-5.331c-2.112,0-5.056,0.224-8.831,0.667c-0.999,0.112-2,0.167-2.999,0.167
	c0,0.225,0.055,0.445,0.167,0.667c0,0.224,0.054,0.39,0.166,0.5c1,0.112,2.776,0,5.332-0.333c1.667-0.222,3.22-0.388,4.665-0.5
	c2.999,0,4.552,0.832,4.664,2.498c-0.112,1.112-0.834,1.724-2.166,1.833c-1.224,0-2.89,0.058-4.999,0.167
	c-2.111,0.224-3.722,0.278-4.831,0.167C17.906,56.805,17.019,56.471,16.463,55.806z"/>
<path fill="#FFFFFF" d="M125.674,27.811h-0.332c1.327-0.884,2.82-1.327,4.48-1.327c3.981,0.443,6.138,1.991,6.471,4.646
	c-0.111,0.775-0.498,1.605-1.161,2.489c2.655,1.107,3.981,3.484,3.981,7.134c0,4.314-1.327,6.417-3.981,6.305
	c-1.66,0-2.712-0.441-3.153-1.327c-0.223,0-0.443,0-0.663,0c-0.887,0.223-1.605,0.277-2.156,0.166c0,0.554,0,1.107,0,1.659
	c0.108,0.111,0.275,0.111,0.497,0c0.222-0.109,0.441-0.166,0.665-0.166c6.525-0.22,9.677,2.546,9.456,8.295
	c0.109,5.75-1.551,8.628-4.976,8.628c-2.987,0-4.703-1.493-5.144-4.48c0-0.22-0.057-0.441-0.165-0.664v0.498
	c0.108,4.314-1.053,6.47-3.484,6.47c-2.434,0-3.762-1.825-3.981-5.475c-2.103,2.654-4.039,4.037-5.808,4.147
	c-2.322-0.223-3.707-2.103-4.147-5.641c3.095-1.327,5.363-2.876,6.802-4.646c-0.663,0.223-1.384,0.332-2.156,0.332
	c-1.77,0-2.932-0.829-3.484-2.489c-0.554,1.107-1.272,1.605-2.156,1.493c-0.111,0.111-0.223,0.111-0.332,0l-0.165-0.166
	c0,0.887,0.054,1.771,0.165,2.655c0.22,1.991,0.332,3.484,0.332,4.48c0,3.538-1.327,5.309-3.981,5.309
	c-2.878-0.111-4.313-1.771-4.313-4.977c0-2.1,0.054-4.037,0.165-5.807c0-0.22,0.055-0.386,0.167-0.498
	c-1.107-0.109-2.103-0.995-2.987-2.655c1.768-2.431,2.987-5.475,3.65-9.125c-2.323-0.441-3.43-2.211-3.319-5.309
	c0-0.664,0.108-1.382,0.332-2.157c0.22,0.443,0.718,0.664,1.493,0.664c0.44,0,1.05-0.109,1.825-0.332
	c-0.224-1.327-0.388-2.377-0.498-3.153c-0.11-0.22-0.388-0.498-0.828-0.829c-0.555-0.664-0.829-1.493-0.829-2.489
	c0-0.332,0-0.718,0-1.161c0.551,0.332,1.436,0.111,2.655-0.664c1.103-0.664,2.045-0.995,2.82-0.995
	c2.874,0.111,4.368,1.493,4.48,4.148c-0.111,1.438-0.332,2.821-0.663,4.148c1.768,0.554,2.655,1.825,2.655,3.816
	c-0.111,2.214-1.328,3.596-3.65,4.148c0,0.332,0,0.609,0,0.829c1.327,0.887,2.265,1.937,2.82,3.153c0-0.22,0.055-0.498,0.165-0.829
	c0.441-1.327,0.665-2.431,0.665-3.319c0-0.773-0.057-1.493-0.167-2.157c1.768,0.332,3.153,0.721,4.148,1.161
	c1.436,0,2.929-0.109,4.48-0.332c-0.111-0.664-0.224-1.382-0.332-2.157c-1.219,0.224-2.323,0.277-3.319,0.167
	c-3.43,0-5.2-1.934-5.309-5.807c1.104,0.223,2.378,0.223,3.816,0c-0.664-0.552-1.053-1.768-1.161-3.65
	c-0.224-1.435-0.498-2.377-0.829-2.82c0.885-0.109,1.825-0.167,2.821-0.167c3.981,0.111,6.026,1.716,6.138,4.811
	c0,0.223-0.057,0.388-0.165,0.498c-0.111,0.223-0.111,0.388,0,0.498c0.22,0.111,0.607,0.111,1.16,0
	c0.441-0.109,0.829-0.166,1.161-0.166c0.996-1.436,1.547-2.597,1.66-3.484C127.885,28.254,127.11,27.811,125.674,27.811z
	 M120.365,46.392h-0.497c-0.224,0.332-0.278,0.664-0.167,0.995c0,0.664,0.332,0.941,0.995,0.829c0.441,0,0.996,0,1.66,0
	c0-0.664,0-1.27,0-1.825C121.692,46.392,121.029,46.392,120.365,46.392z M127.665,38.595c0.551,0.555,0.939,1.272,1.161,2.156
	c0.108,0.111,0.332,0.111,0.664,0c0.332-0.108,0.551-0.166,0.663-0.166c0.332,0,0.718,0.058,1.161,0.166
	c-0.224-1.327-0.887-1.991-1.992-1.991C128.77,38.651,128.216,38.595,127.665,38.595z M129.655,53.361h-0.332
	c0,0.554,0,1.053,0,1.493c0.109,0.443,0.167,0.995,0.167,1.659c1.547,0.223,2.377-0.275,2.488-1.493
	C131.978,53.915,131.203,53.361,129.655,53.361z"/>
<path fill="#FFFFFF" d="M55.45,47.883h-0.204c-5.277,0-7.916-2.908-7.916-8.729c0.133-2.974,1.421-5.278,3.856-6.901
	c-0.543,1.084-0.812,2.1-0.812,3.044c-0.137,1.491,1.148,2.167,3.857,2.03c1.624,0.137,3.45,0.137,5.481,0
	c1.624-0.133,4.125-0.336,7.51-0.609c4.193-0.27,8.526-0.473,12.992-0.609c0.406,0,0.944,0,1.624,0
	c9.607-0.54,14.342,1.827,14.21,7.104c-0.137,2.843-2.031,4.263-5.684,4.263c-0.678,0.136-1.491,0.136-2.435,0
	c-1.085-0.133-1.897-0.203-2.437-0.203c5.548,3.926,8.526,8.526,8.931,13.803c-0.272,3.517-2.37,5.411-6.292,5.684
	c-3.384-0.137-6.023-2.03-7.916-5.684c-2.304,2.975-7.581,4.599-15.834,4.872c-9.068-0.137-13.6-2.979-13.6-8.526
	c-0.137-0.406,0.067-1.624,0.61-3.653C51.929,52.551,53.284,50.59,55.45,47.883z M72.908,46.664c-0.407,0-0.948,0.07-1.625,0.203
	c-0.679,0.137-1.151,0.137-1.421,0c-3.115,3.52-4.738,5.684-4.871,6.496c0,1.354,1.421,2.03,4.263,2.03
	c2.84,0,5.683-0.27,8.526-0.812c-0.812-1.758-1.625-3.45-2.437-5.075C74.936,48.694,74.125,47.749,72.908,46.664z"/>
<g>
	<path fill="#FFFFFF" d="M59.409,33.816l-0.07-0.008c-0.164-0.019-4.036-0.473-5.734-2.836c-0.736-1.024-0.96-2.227-0.667-3.578
		c0.881-4.053,4.79-4.878,6.655-5.039c-0.041-1.268,0.427-3.035,2.353-4.335c1.251-0.845,2.806-1.272,4.624-1.272
		c0.732,0,1.365,0.072,1.808,0.143c0.414-0.728,1.273-1.95,2.797-2.964c1.026-0.683,3.231-1.831,6.45-1.831
		c0.997,0,2.011,0.114,3.013,0.34c5.372,1.211,6.52,4.637,6.764,6.055c0.157,0.906,0.063,1.714-0.081,2.32
		c2.186,0.338,5.178,1.624,5.65,4.917c0.223,1.556-0.157,2.833-1.161,3.905c-1.649,1.761-4.411,2.514-4.528,2.546l-0.167,0.027
		L59.409,33.816z M60.404,23.982c-0.839,0-5.062,0.181-5.841,3.766c-0.192,0.881-0.064,1.618,0.39,2.25
		c1.164,1.626,4.041,2.084,4.505,2.148l27.466-1.599c0.418-0.125,2.481-0.786,3.669-2.054c0.654-0.699,0.879-1.479,0.728-2.531
		c-0.498-3.474-4.959-3.583-5.148-3.586l-1.369-0.022l0.648-1.205c0.003-0.005,0.537-1.05,0.309-2.377
		c-0.188-1.088-1.097-3.724-5.489-4.714c-0.882-0.199-1.773-0.3-2.648-0.3c-2.031,0-4.046,0.567-5.53,1.553
		c-1.831,1.218-2.477,2.804-2.484,2.82l-0.271,0.682l-0.709-0.18c-0.007-0.002-0.889-0.223-2.061-0.223
		c-1.017,0-2.483,0.171-3.693,0.988c-2.136,1.441-1.554,3.416-1.528,3.5l0.349,1.128L60.404,23.982z"/>
</g>
<g>
	
		<linearGradient id="SVGID_1_" gradientUnits="userSpaceOnUse" x1="-1020.542" y1="4734.5947" x2="-1020.542" y2="4663.855" gradientTransform="matrix(1 0 0 1 1202.38 -4658.855)">
		<stop  offset="0" style="stop-color:#79EAFF"/>
		<stop  offset="1" style="stop-color:#2ABBFF"/>
	</linearGradient>
	<path fill="url(#SVGID_1_)" d="M217.208,40.37c0,19.534-15.835,35.37-35.37,35.37s-35.37-15.835-35.37-35.37S162.303,5,181.838,5
		S217.208,20.836,217.208,40.37z M181.839,13.793c-14.678,0-26.577,11.899-26.577,26.577s11.899,26.577,26.577,26.577
		s26.577-11.899,26.577-26.577S196.517,13.793,181.839,13.793z"/>
	
		<linearGradient id="SVGID_2_" gradientUnits="userSpaceOnUse" x1="-1004.8805" y1="4734.5938" x2="-1004.8805" y2="4663.856" gradientTransform="matrix(1 0 0 1 1202.38 -4658.855)">
		<stop  offset="0" style="stop-color:#2EF0FF"/>
		<stop  offset="1" style="stop-color:#0089FF"/>
	</linearGradient>
	<path fill="url(#SVGID_2_)" d="M217.208,40.37c0-19.333-15.513-35.033-34.769-35.354c-0.051-0.002-0.099-0.015-0.151-0.015
		c-0.031,0-0.059,0.008-0.09,0.009c-0.12-0.001-0.239-0.009-0.359-0.009v0.045c-2.228,0.228-3.972,2.088-3.972,4.376
		c0,2.442,1.979,4.421,4.421,4.421c0.105,0,0.203-0.024,0.306-0.031c14.328,0.401,25.821,12.133,25.821,26.558
		c0,14.445-11.526,26.19-25.882,26.559c-0.108-0.008-0.211-0.032-0.321-0.032c-2.442,0-4.421,1.979-4.421,4.421
		c0,2.313,1.783,4.19,4.047,4.383v0.038c0.1,0,0.199-0.007,0.3-0.008c0.026,0,0.049,0.008,0.075,0.008
		c0.043,0,0.083-0.011,0.126-0.013C201.641,75.458,217.208,59.736,217.208,40.37z"/>
	<circle fill="#FFFFFF" cx="192.33" cy="70.093" r="1.916"/>
</g>
<g>
	<text transform="matrix(1 0 0 1 165.0529 34.9521)" fill="#FFFFFF" font-family="'YouYuan'" font-size="16.7855">智能</text>
	<text transform="matrix(1 0 0 1 165.0529 55.0952)" fill="#FFFFFF" font-family="'YouYuan'" font-size="16.7855">题库</text>
</g>
</svg>
